<?xml version="1.0" encoding="UTF-8" standalone="no"?>
<svg
   width="1200pt"
   height="1200pt"
   version="1.1"
   viewBox="0 0 1200 1200"
   id="svg1"
   sodipodi:docname="noun-add-to-favorites-3849763.svg"
   inkscape:version="1.4 (e7c3feb100, 2024-10-09)"
   xmlns:inkscape="http://www.inkscape.org/namespaces/inkscape"
   xmlns:sodipodi="http://sodipodi.sourceforge.net/DTD/sodipodi-0.dtd"
   xmlns="http://www.w3.org/2000/svg"
   xmlns:svg="http://www.w3.org/2000/svg">
  <defs
     id="defs1">
    <linearGradient
       id="swatch9"
       inkscape:swatch="solid">
      <stop
         style="stop-color:#008080;stop-opacity:1;"
         offset="0"
         id="stop10" />
    </linearGradient>
  </defs>
  <sodipodi:namedview
     id="namedview1"
     pagecolor="#ffffff"
     bordercolor="#000000"
     borderopacity="0.25"
     inkscape:showpageshadow="2"
     inkscape:pageopacity="0.0"
     inkscape:pagecheckerboard="0"
     inkscape:deskcolor="#d1d1d1"
     inkscape:document-units="pt"
     inkscape:zoom="0.405"
     inkscape:cx="800"
     inkscape:cy="800"
     inkscape:window-width="1536"
     inkscape:window-height="892"
     inkscape:window-x="0"
     inkscape:window-y="0"
     inkscape:window-maximized="1"
     inkscape:current-layer="svg1" />
  <path
     d="m726.34 861.27c3.5 5.3242 4.7383 11.824 3.4414 18.062-1.2969 6.2422-5.0195 11.711-10.352 15.199-30.625 20.113-66.047 40.609-108.29 62.734v0.003906c-6.9375 3.6016-15.191 3.6016-22.129 0-345.46-178.61-397.01-370.56-397.01-469.11 0-139.15 94.895-248.16 216-248.16 36.273 0.12109 72.117 7.8789 105.2 22.766 33.078 14.887 62.656 36.566 86.805 63.633 24.148-27.066 53.727-48.746 86.805-63.633 33.078-14.887 68.922-22.645 105.2-22.766 121.11 0 216 109.01 216 248.16-1.1914 63.449-19.715 125.36-53.566 179.04-3.1172 5.7461-8.4414 9.9727-14.746 11.703-6.3008 1.7305-13.039 0.81641-18.652-2.5312-5.6133-3.3516-9.6172-8.8438-11.086-15.215-1.4688-6.3672-0.27734-13.062 3.2969-18.531 29.332-46.285 45.496-99.684 46.754-154.46 0-114.14-72-200.16-168-200.16-33.707 0.26953-66.863 8.5508-96.734 24.168-29.875 15.617-55.602 38.117-75.059 65.641-4.7305 6.418-12.23 10.207-20.207 10.207s-15.477-3.7891-20.207-10.207c-19.457-27.523-45.184-50.023-75.059-65.641-29.871-15.617-63.027-23.898-96.734-24.168-95.762 0-168 86.016-168 200.16 0 86.398 47.039 255.55 360 420.72 35.953-19.199 66.527-37.008 93.121-54.48 5.3164-3.4883 11.801-4.7266 18.027-3.4375 6.2266 1.2852 11.691 4.9922 15.188 10.305zm209.66-93.266h-72v-72c0-8.5742-4.5742-16.496-12-20.785-7.4258-4.2852-16.574-4.2852-24 0-7.4258 4.2891-12 12.211-12 20.785v72h-72c-8.5742 0-16.496 4.5742-20.785 12-4.2852 7.4258-4.2852 16.574 0 24 4.2891 7.4258 12.211 12 20.785 12h72v72c0 8.5742 4.5742 16.496 12 20.785 7.4258 4.2852 16.574 4.2852 24 0 7.4258-4.2891 12-12.211 12-20.785v-72h72c8.5742 0 16.496-4.5742 20.785-12 4.2852-7.4258 4.2852-16.574 0-24-4.2891-7.4258-12.211-12-20.785-12z"
     id="path1"
     style="fill:#008080;fill-opacity:1" />
</svg>
